<svg width="32" height="32" viewBox="0 0 32 32" fill="none" xmlns="http://www.w3.org/2000/svg">
<path d="M4 8H28M10 29.3333H20" stroke="white" stroke-width="2" stroke-linecap="round" stroke-linejoin="round"/>
<path d="M9.33333 29.3333C8 29.3333 6.66666 28 6.66666 26.6667V8" stroke="white" stroke-width="2" stroke-linecap="round" stroke-linejoin="round"/>
<path d="M25.3333 10.5L25.3333 8" stroke="white" stroke-width="2" stroke-linecap="round" stroke-linejoin="round"/>
<path d="M10.6667 8V5.33333C10.6667 4 12 2.66667 13.3333 2.66667H18.6667C20 2.66667 21.3333 4 21.3333 5.33333V8" stroke="white" stroke-width="2" stroke-linecap="round" stroke-linejoin="round"/>
<path d="M17.7801 23.7995C17.633 23.8001 17.4888 23.7524 17.3641 23.6618C17.2395 23.5713 17.1397 23.4417 17.0762 23.2882C17.0127 23.1346 16.9881 22.9633 17.0054 22.7942C17.0226 22.6251 17.081 22.4651 17.1737 22.3329L24.8708 13.1553C24.9285 13.0782 25.0072 13.0261 25.0939 13.0075C25.1806 12.9889 25.2702 13.0051 25.3479 13.0532C25.4257 13.1013 25.487 13.1786 25.5218 13.2724C25.5566 13.3661 25.5628 13.4708 25.5394 13.5692L24.0466 18.9858C24.0026 19.1221 23.9878 19.2688 24.0036 19.4132C24.0193 19.5576 24.065 19.6954 24.1369 19.8149C24.2088 19.9343 24.3046 20.0318 24.4162 20.0989C24.5277 20.1661 24.6517 20.2009 24.7775 20.2005H30.2199C30.367 20.1999 30.5112 20.2476 30.6359 20.3382C30.7605 20.4287 30.8603 20.5583 30.9238 20.7118C30.9873 20.8654 31.0119 21.0367 30.9946 21.2058C30.9774 21.3749 30.919 21.5349 30.8263 21.6671L23.1292 30.8447C23.0715 30.9218 22.9928 30.9739 22.9061 30.9925C22.8194 31.0111 22.7298 30.9949 22.6521 30.9468C22.5743 30.8987 22.513 30.8214 22.4782 30.7276C22.4434 30.6339 22.4372 30.5292 22.4606 30.4308L23.9534 25.0142C23.9974 24.8779 24.0122 24.7312 23.9964 24.5868C23.9807 24.4424 23.935 24.3046 23.8631 24.1851C23.7912 24.0657 23.6954 23.9682 23.5838 23.9011C23.4723 23.8339 23.3483 23.7991 23.2225 23.7995H17.7801Z" stroke="white" stroke-linecap="round" stroke-linejoin="round"/>
</svg>
